<svg width="158" height="42" viewBox="0 0 158 42" fill="none" xmlns="http://www.w3.org/2000/svg">
<path d="M39.6093 1.0247C39.9163 1.0247 40.1795 0.980936 40.4427 0.980936C42.5044 0.980936 44.6099 0.980936 46.6715 0.980936C47.2417 0.980936 47.5926 1.15599 47.8997 1.63739C51.6282 7.4142 55.3567 13.1472 59.0851 18.8803C59.2606 19.1429 59.4799 19.4054 59.6554 19.7118C59.7431 19.668 59.8308 19.668 59.8747 19.6243C59.8747 19.3179 59.8747 19.0116 59.8747 18.7052C59.8747 13.1035 59.8747 7.45796 59.8747 1.85621C59.8747 1.15599 60.094 0.937172 60.7959 0.980936C63.0768 1.0247 65.3578 0.980936 67.7264 0.980936C67.7264 11.4842 67.7264 21.9437 67.7264 32.4908C67.4633 32.4908 67.2001 32.5345 66.893 32.5345C64.8314 32.5345 62.7259 32.5345 60.6643 32.5345C60.094 32.5345 59.7431 32.3595 59.4361 31.8781C55.7076 26.1013 51.9352 20.3245 48.1629 14.5477C48.0313 14.3289 47.8558 14.11 47.6804 13.8912C47.5926 13.935 47.5488 13.935 47.461 13.9787C47.461 20.1494 47.461 26.3201 47.461 32.5783C44.7853 32.5783 42.1973 32.5783 39.5654 32.5783C39.6093 22.0313 39.6093 11.5717 39.6093 1.0247Z" fill="#1E4164"/>
<path d="M133.743 9.51508C132.821 12.0534 131.944 14.5041 131.067 16.9549C129.268 21.9002 127.426 26.8893 125.628 31.8783C125.408 32.4472 125.189 32.6223 124.575 32.6223C122.776 32.5785 120.978 32.5785 119.136 32.6223C118.478 32.6223 118.215 32.4472 117.995 31.8346C116.723 28.1146 115.407 24.3947 114.091 20.6748C114.004 20.3685 113.872 20.1059 113.696 19.5807C113.477 20.1497 113.346 20.4998 113.258 20.8061C111.986 24.4823 110.67 28.1584 109.442 31.8346C109.266 32.4035 109.003 32.6661 108.389 32.6223C106.547 32.5785 104.66 32.5785 102.818 32.6223C102.379 32.6223 102.072 32.5348 101.897 32.0534C99.1335 24.6135 96.4577 17.305 93.782 9.95272C93.7381 9.82143 93.6943 9.69013 93.6504 9.47132C93.9574 9.42755 94.1768 9.42755 94.44 9.42755C96.4139 9.42755 98.4316 9.47132 100.406 9.42755C101.02 9.42755 101.283 9.64637 101.458 10.2153C102.686 14.1978 103.915 18.1803 105.187 22.119C105.318 22.4691 105.406 22.8192 105.582 23.3444C105.713 23.0381 105.801 22.863 105.845 22.6879C107.205 18.4866 108.564 14.3291 109.88 10.1278C110.056 9.55884 110.319 9.38379 110.889 9.38379C112.688 9.42755 114.486 9.42755 116.328 9.38379C116.942 9.38379 117.206 9.60261 117.381 10.1715C118.653 14.2853 120.013 18.3553 121.329 22.4254C121.417 22.6442 121.504 22.9068 121.68 23.3444C122.338 21.2 122.952 19.3181 123.566 17.3925C124.356 14.9418 125.101 12.491 125.891 10.0402C126.022 9.64637 126.11 9.38379 126.637 9.38379C128.83 9.42755 131.067 9.38379 133.26 9.38379C133.436 9.42755 133.523 9.47132 133.743 9.51508Z" fill="#1E4164"/>
<path d="M94.2205 32.4907C91.6325 32.4907 89.1322 32.4907 86.5442 32.4907C86.5442 31.8343 86.5442 31.1778 86.5442 30.5651C86.4126 30.5214 86.3249 30.5214 86.3249 30.5214C82.421 34.4163 74.9201 33.4973 71.2794 28.6395C67.8141 24.0443 68.165 16.3419 72.1128 12.2281C75.5342 8.68329 81.2805 7.85178 85.1406 10.3901C85.5792 10.6964 85.974 11.0465 86.5003 11.4404C86.5003 10.7402 86.5003 10.0837 86.5003 9.38351C89.1322 9.38351 91.6764 9.38351 94.2644 9.38351C94.2205 17.1734 94.2205 24.7883 94.2205 32.4907ZM76.4992 20.9371C76.4992 23.9568 78.6486 26.145 81.5875 26.145C84.5703 26.145 86.6758 24.0006 86.6758 20.9371C86.6758 17.8737 84.5703 15.7292 81.5875 15.7292C78.6486 15.773 76.4992 17.9612 76.4992 20.9371Z" fill="#1E4164"/>
<path d="M144.753 23.5193C145.718 21.0685 146.551 18.8365 147.428 16.6046C148.262 14.4164 149.095 12.1845 150.016 9.99628C150.104 9.7337 150.499 9.47112 150.718 9.42735C152.999 9.38359 155.28 9.38359 157.605 9.42735C157.693 9.42735 157.824 9.47112 158 9.51488C157.912 9.82123 157.824 10.0838 157.693 10.3464C153.526 20.2807 149.315 30.2589 145.147 40.1932C144.884 40.8059 144.577 41.0247 143.919 41.0247C141.726 40.981 139.577 41.0247 137.252 41.0247C137.559 40.2807 137.822 39.6681 138.085 39.0116C138.963 36.9985 139.884 35.0291 140.673 33.016C140.849 32.6221 140.849 32.0532 140.673 31.6593C137.691 24.5258 134.708 17.3923 131.681 10.2589C131.593 10.04 131.506 9.82123 131.374 9.47112C131.725 9.42735 131.988 9.42735 132.251 9.42735C134.269 9.42735 136.287 9.47112 138.305 9.42735C139.006 9.42735 139.314 9.64617 139.533 10.2589C141.068 14.3289 142.691 18.4427 144.27 22.5127C144.446 22.7315 144.533 22.9941 144.753 23.5193Z" fill="#1E4164"/>
<path d="M19.3004 13.2785V1.33105H0C0 1.41858 0 1.50611 0 1.59364C0 6.01377 1.53526 10.0838 4.03554 13.2785H12.3698H19.3004Z" fill="#7DCBC1"/>
<path d="M19.3877 13.2783V28.2455C22.6775 30.9151 26.8447 32.5343 31.4066 32.5343C31.4943 32.5343 31.582 32.5343 31.6698 32.5343V13.2783H19.3877Z" fill="#FF5E00"/>
<path d="M13.4227 19.7116C9.65036 18.5737 6.40438 16.298 4.0357 13.2783H0.0878906C0.0878906 13.3658 0.0878906 13.4534 0.0878906 13.5409C0.0878906 24.0442 8.59761 32.5343 19.1251 32.5343C19.2128 32.5343 19.3006 32.5343 19.3883 32.5343V28.2893C16.6687 26.0573 14.5632 23.1251 13.4227 19.7116Z" fill="#015C9A"/>
<path d="M13.4222 19.7116C12.7642 17.786 12.3694 15.6853 12.3694 13.5409C12.3694 13.4534 12.3694 13.3658 12.3694 13.2783H4.03516C6.40384 16.298 9.64981 18.5737 13.4222 19.7116Z" fill="#00BDCF"/>
<path d="M26.4498 10.2151C28.9063 10.2151 30.8802 8.24572 30.8802 5.79495V1.33105H26.4498C23.9934 1.33105 22.0195 3.30042 22.0195 5.75119C22.0195 8.20195 23.9934 10.2151 26.4498 10.2151Z" fill="#7DCBC1"/>
<path d="M19.3007 13.2783H12.3701C12.3701 13.3658 12.3701 13.4534 12.3701 13.5409C12.3701 15.6853 12.721 17.786 13.4229 19.7116C14.6072 23.0814 16.6688 26.0573 19.3884 28.2455V13.2783H19.3007Z" fill="#FF3A00"/>
</svg>
